<svg width="430" height="190" viewBox="0 0 430 190" fill="none" xmlns="http://www.w3.org/2000/svg">
    <g filter="url(#filter0_d_14_11)">
        <path d="M0 20C0 8.95431 8.9543 0 20 0H430V190H20C8.95432 190 0 181.046 0 170V20Z" fill="#A400E1"/>
    </g>
    <path d="M70 159C92.0913 159 110 141.091 110 119C110 96.9086 92.0913 79 70 79C47.9086 79 30 96.9086 30 119C30 141.091 47.9086 159 70 159Z" fill="#CA3CFF"/>
    <path fill-rule="evenodd" clip-rule="evenodd" d="M70 91.0005V111.647V111.648V129.58L87.1461 119.435L87.1467 119.435L87.1464 119.435L87.1467 119.435L87.1462 119.435L70 91.0005ZM70 147.077V133.145L87.1467 123L70 147.077ZM70 147.077V133.145L52.8531 123L70 147.077ZM70 111.648V129.58L52.8537 119.435L52.8531 119.435L52.8534 119.435L52.8531 119.435L52.8536 119.435L70 91.0005V111.647V111.648Z" fill="white"/>
    <circle cx="400" cy="119" r="40" fill="#CA3CFF"/>
    <path fill-rule="evenodd" clip-rule="evenodd" d="M382.4 113.184C382.441 103.158 390.558 95.0403 400.584 95C409.739 95.2378 417.285 102.251 418.194 111.36C419.191 121.347 411.902 130.251 401.915 131.246C401.915 131.246 399.602 131.402 399.052 131.486C396.378 131.897 394.242 133.927 393.697 136.578C393.697 136.578 392.978 140.089 392.907 140.4C392.904 140.438 392.904 140.478 392.907 140.519C392.904 140.541 392.898 140.563 392.892 140.584L392.892 140.584C392.562 141.865 391.254 142.636 389.973 142.304H389.841C389.828 142.302 389.812 142.298 389.799 142.294C388.516 141.968 387.741 140.664 388.067 139.381C388.067 139.142 393.768 112.752 393.768 112.752C394.056 111.406 395.381 110.549 396.727 110.836C398.074 111.124 398.931 112.449 398.643 113.795L396.246 124.577L395.851 126.732C395.805 126.792 395.805 126.876 395.851 126.935L395.853 126.937C395.92 127.003 396.026 127.003 396.091 126.935C396.549 126.818 397.013 126.726 397.481 126.659C398.751 126.504 401.303 126.349 401.303 126.349C408.074 125.936 413.413 120.431 413.618 113.652C413.837 106.41 408.143 100.364 400.902 100.145C393.661 99.9266 387.614 105.62 387.396 112.861C387.325 114.438 387.565 116.012 388.104 117.497C388.51 118.801 387.833 120.195 386.558 120.684C385.238 121.085 383.833 120.386 383.359 119.09C382.724 117.186 382.4 115.191 382.4 113.184ZM398.103 139.276C398.444 137.638 400.047 136.585 401.687 136.927C403.315 137.299 404.366 138.877 404.084 140.522V140.689C404.081 140.697 404.079 140.706 404.077 140.714C404.076 140.718 404.075 140.722 404.074 140.726C403.691 142.319 402.086 143.301 400.49 142.916H400.406C400.405 142.915 400.403 142.914 400.402 142.914C400.402 142.914 400.401 142.914 400.4 142.914C398.77 142.559 397.738 140.95 398.093 139.322C398.095 139.314 398.096 139.306 398.098 139.299C398.099 139.291 398.101 139.283 398.103 139.276Z" fill="white"/>
    <circle cx="400" cy="119" r="39.5" stroke="#CA3CFF"/>
    <path d="M218.809 128.665C213.489 150.125 191.733 163.13 170.333 157.809C148.932 152.489 135.867 130.734 141.187 109.335C146.507 87.8753 168.204 74.8702 189.664 80.1906C211.124 85.57 224.13 107.266 218.809 128.665Z" fill="#CA3CFF"/>
    <path d="M197.331 113.054C198.098 107.734 194.079 104.896 188.521 102.946L190.295 95.734L185.92 94.6112L184.147 101.646L180.659 100.818L182.432 93.7238L178.058 92.6011L176.284 99.813C175.338 99.5767 174.393 99.3993 173.505 99.1629L167.476 97.6255L166.293 102.296L169.486 103.065C171.259 103.537 171.614 104.661 171.555 105.606L169.486 113.823C169.604 113.882 169.781 113.882 169.959 113.942C169.84 113.883 169.663 113.883 169.486 113.823L166.589 125.351C166.352 125.883 165.821 126.711 164.578 126.415C164.638 126.473 161.387 125.646 161.387 125.646L159.199 130.671L164.933 132.09L168.067 132.918L166.235 140.188L170.609 141.311L172.383 134.099C173.565 134.454 174.747 134.749 175.87 134.986L174.097 142.139L178.472 143.261L180.304 135.991C187.812 137.409 193.428 136.818 195.793 130.079C197.685 124.64 195.675 121.507 191.773 119.438C194.611 118.847 196.739 116.955 197.331 113.054V113.054ZM187.28 127.124C185.92 132.563 176.757 129.607 173.743 128.898L176.166 119.262C179.181 119.971 188.699 121.45 187.28 127.124ZM188.64 112.996C187.399 117.961 179.772 115.42 177.289 114.828L179.477 106.079C181.96 106.67 189.94 107.793 188.64 112.996Z" fill="white"/>
    <path d="M290 159C312.091 159 330 141.091 330 119C330 96.909 312.091 79 290 79C267.909 79 250 96.909 250 119C250 141.091 267.909 159 290 159Z" fill="#CA3CFF"/>
    <path d="M294.966 122.987L290.078 123.116C287.505 123.116 285.769 123.051 285.126 122.987C275.415 122.601 268.084 120.865 268.084 118.871C268.084 116.813 275.351 115.142 285.126 114.691V121.314C285.769 121.379 287.57 121.443 290.142 121.443C293.164 121.443 294.708 121.314 294.966 121.314V114.691C304.74 115.142 312.007 116.813 312.007 118.871C312.007 120.865 304.74 122.601 294.966 122.987ZM294.966 113.984V108.068H308.599V99H271.557V108.068H285.19V113.984C274.129 114.498 265.834 116.685 265.834 119.322C265.834 121.959 274.129 124.145 285.19 124.66V143.695H295.03V124.659C306.09 124.145 314.386 121.958 314.386 119.321C314.322 116.685 306.027 114.498 294.966 113.983V113.984Z" fill="white"/>
    <path d="M34.5256 53H30.571L36.5966 35.5455H41.3523L47.3693 53H43.4148L39.0426 39.5341H38.9062L34.5256 53ZM34.2784 46.1392H43.6193V49.0199H34.2784V46.1392ZM64.0696 35.5455V53H60.8821L53.2884 42.0142H53.1605V53H49.4702V35.5455H52.7088L60.2429 46.5227H60.3963V35.5455H64.0696ZM66.0959 35.5455H70.2294L74.2095 43.0625H74.38L78.3601 35.5455H82.4936L76.1271 46.8295V53H72.4624V46.8295L66.0959 35.5455ZM90.0639 53V35.5455H96.9503C98.2741 35.5455 99.402 35.7983 100.334 36.304C101.266 36.804 101.976 37.5 102.464 38.392C102.959 39.2784 103.206 40.3011 103.206 41.4602C103.206 42.6193 102.956 43.642 102.456 44.5284C101.956 45.4148 101.232 46.1051 100.283 46.5994C99.3395 47.0937 98.1974 47.3409 96.8565 47.3409H92.4673V44.3835H96.2599C96.9702 44.3835 97.5554 44.2614 98.0156 44.017C98.4815 43.767 98.8281 43.4233 99.0554 42.9858C99.2884 42.5426 99.4048 42.0341 99.4048 41.4602C99.4048 40.8807 99.2884 40.375 99.0554 39.9432C98.8281 39.5057 98.4815 39.1676 98.0156 38.929C97.5497 38.6847 96.9588 38.5625 96.2429 38.5625H93.7543V53H90.0639ZM106.596 53H102.641L108.667 35.5455H113.423L119.44 53H115.485L111.113 39.5341H110.977L106.596 53ZM106.349 46.1392H115.69V49.0199H106.349V46.1392ZM118.737 35.5455H122.87L126.85 43.0625H127.021L131.001 35.5455H135.134L128.768 46.8295V53H125.103V46.8295L118.737 35.5455ZM137.15 35.5455H141.701L146.508 47.2727H146.712L151.519 35.5455H156.07V53H152.491V41.6392H152.346L147.829 52.9148H145.391L140.874 41.5966H140.729V53H137.15V35.5455ZM159.111 53V35.5455H170.872V38.5881H162.801V42.7472H170.267V45.7898H162.801V49.9574H170.906V53H159.111ZM188.406 35.5455V53H185.218L177.624 42.0142H177.496V53H173.806V35.5455H177.045L184.579 46.5227H184.732V35.5455H188.406ZM190.79 38.5881V35.5455H205.125V38.5881H199.781V53H196.134V38.5881H190.79ZM213.04 35.5455H217.592L222.398 47.2727H222.603L227.41 35.5455H231.961V53H228.381V41.6392H228.237L223.719 52.9148H221.282L216.765 41.5966H216.62V53H213.04V35.5455ZM235.001 53V35.5455H246.763V38.5881H238.692V42.7472H246.158V45.7898H238.692V49.9574H246.797V53H235.001ZM249.032 38.5881V35.5455H263.367V38.5881H258.023V53H254.376V38.5881H249.032ZM265.728 53V35.5455H269.418V42.7472H276.91V35.5455H280.592V53H276.91V45.7898H269.418V53H265.728ZM299.674 44.2727C299.674 46.1761 299.313 47.7955 298.592 49.1307C297.876 50.4659 296.898 51.4858 295.66 52.1903C294.427 52.8892 293.04 53.2386 291.501 53.2386C289.95 53.2386 288.558 52.8864 287.325 52.1818C286.092 51.4773 285.117 50.4574 284.401 49.1222C283.685 47.7869 283.327 46.1705 283.327 44.2727C283.327 42.3693 283.685 40.75 284.401 39.4148C285.117 38.0795 286.092 37.0625 287.325 36.3636C288.558 35.6591 289.95 35.3068 291.501 35.3068C293.04 35.3068 294.427 35.6591 295.66 36.3636C296.898 37.0625 297.876 38.0795 298.592 39.4148C299.313 40.75 299.674 42.3693 299.674 44.2727ZM295.933 44.2727C295.933 43.0398 295.748 42 295.379 41.1534C295.015 40.3068 294.501 39.6648 293.836 39.2273C293.171 38.7898 292.393 38.571 291.501 38.571C290.609 38.571 289.83 38.7898 289.165 39.2273C288.501 39.6648 287.984 40.3068 287.614 41.1534C287.251 42 287.069 43.0398 287.069 44.2727C287.069 45.5057 287.251 46.5455 287.614 47.392C287.984 48.2386 288.501 48.8807 289.165 49.3182C289.83 49.7557 290.609 49.9744 291.501 49.9744C292.393 49.9744 293.171 49.7557 293.836 49.3182C294.501 48.8807 295.015 48.2386 295.379 47.392C295.748 46.5455 295.933 45.5057 295.933 44.2727ZM308.595 53H302.408V35.5455H308.646C310.402 35.5455 311.913 35.8949 313.18 36.5938C314.447 37.2869 315.422 38.2841 316.104 39.5852C316.791 40.8864 317.135 42.4432 317.135 44.2557C317.135 46.0739 316.791 47.6364 316.104 48.9432C315.422 50.25 314.442 51.2528 313.163 51.9517C311.891 52.6506 310.368 53 308.595 53ZM306.098 49.8381H308.442C309.533 49.8381 310.45 49.6449 311.195 49.2585C311.945 48.8665 312.507 48.2614 312.882 47.4432C313.263 46.6193 313.453 45.5568 313.453 44.2557C313.453 42.9659 313.263 41.9119 312.882 41.0938C312.507 40.2756 311.947 39.6733 311.203 39.2869C310.459 38.9006 309.541 38.7074 308.45 38.7074H306.098V49.8381Z" fill="white"/>
    <defs>
        <filter id="filter0_d_14_11" x="-10" y="0" width="450" height="210" filterUnits="userSpaceOnUse" color-interpolation-filters="sRGB">
            <feFlood flood-opacity="0" result="BackgroundImageFix"/>
            <feColorMatrix in="SourceAlpha" type="matrix" values="0 0 0 0 0 0 0 0 0 0 0 0 0 0 0 0 0 0 127 0" result="hardAlpha"/>
            <feOffset dy="10"/>
            <feGaussianBlur stdDeviation="5"/>
            <feComposite in2="hardAlpha" operator="out"/>
            <feColorMatrix type="matrix" values="0 0 0 0 0 0 0 0 0 0 0 0 0 0 0 0 0 0 0.15 0"/>
            <feBlend mode="normal" in2="BackgroundImageFix" result="effect1_dropShadow_14_11"/>
            <feBlend mode="normal" in="SourceGraphic" in2="effect1_dropShadow_14_11" result="shape"/>
        </filter>
    </defs>
</svg>
