<svg width="60" height="60" viewBox="0 0 60 60" fill="none" xmlns="http://www.w3.org/2000/svg">
    <circle cx="30" cy="30" r="30" fill="white"/>
    <path d="M38.7373 30.3551C38.7225 27.8183 39.8718 25.9064 42.1928 24.4967C40.8947 22.6369 38.9308 21.614 36.3419 21.4169C33.8907 21.2235 31.2089 22.8452 30.2269 22.8452C29.1891 22.8452 26.816 21.4838 24.9488 21.4838C21.0953 21.5433 17 24.5562 17 30.6861C17 32.4976 17.331 34.3685 17.9931 36.2953C18.8784 38.832 22.0698 45.0475 25.3989 44.9471C27.1396 44.9061 28.3708 43.7122 30.6361 43.7122C32.8343 43.7122 33.9725 44.9471 35.9142 44.9471C39.273 44.8987 42.1594 39.2486 43 36.7044C38.4956 34.5805 38.7373 30.4853 38.7373 30.3551ZM34.828 19.0103C36.7139 16.7711 36.5428 14.7328 36.487 14C34.8206 14.0967 32.8938 15.1345 31.7966 16.4103C30.5877 17.7791 29.8773 19.4715 30.0298 21.3797C31.83 21.5173 33.4741 20.5911 34.828 19.0103Z" fill="black"/>
</svg>
