<svg width="41" height="25" viewBox="0 0 41 25" fill="none" xmlns="http://www.w3.org/2000/svg">
    <rect x="0.25" y="0.25" width="40.5" height="24.5" rx="2.75" fill="white" stroke="#E6E6E6" stroke-width="0.5"/>
    <path d="M19.503 5.21068L19.5537 5.2606L19.9563 5.66321C20.0734 5.78028 20.0734 5.9701 19.9563 6.08718L18.7905 7.25314C18.6734 7.37022 18.4836 7.37021 18.3665 7.25313L17.964 6.85048C17.1613 6.04774 15.8599 6.04774 15.0572 6.85048C14.2546 7.65322 14.2546 8.95472 15.0572 9.75746C15.8476 10.5479 17.1214 10.56 17.9266 9.79394L17.964 9.75746L19.2675 8.45355C19.2676 8.45338 19.2679 8.45338 19.2681 8.45355C19.2683 8.45373 19.2686 8.45373 19.2687 8.45355L21.1566 6.5655C21.1568 6.56533 21.1568 6.56505 21.1566 6.56487C21.1564 6.5647 21.1564 6.56442 21.1566 6.56424L22.4604 5.2606C24.141 3.5798 26.8659 3.5798 28.5465 5.2606C30.2272 6.94141 30.2272 9.66654 28.5465 11.3473C26.9946 12.8994 24.5522 13.0183 22.8639 11.7039C22.863 11.7032 22.8619 11.7043 22.8626 11.7052C22.8736 11.7192 22.8847 11.7332 22.8959 11.7471C22.9039 11.7571 22.912 11.7671 22.9202 11.777L22.8959 11.7471C22.9142 11.7699 22.9327 11.7925 22.9516 11.815L22.9202 11.777C22.9387 11.7997 22.9576 11.8222 22.9767 11.8446L22.9516 11.815C22.9687 11.8353 22.986 11.8556 23.0035 11.8757L22.9767 11.8446C22.9962 11.8675 23.016 11.8902 23.0361 11.9128L23.0035 11.8757C23.0238 11.8991 23.0444 11.9222 23.0653 11.9453L23.0361 11.9128C23.0571 11.9364 23.0785 11.9598 23.1001 11.9831L23.1599 12.0461L23.2098 12.0968C23.2621 12.1491 23.3154 12.1998 23.3696 12.2488C23.3741 12.2529 23.3787 12.257 23.3833 12.2611L23.3696 12.2488C23.4166 12.2913 23.4643 12.3325 23.5127 12.3726C23.5843 12.4318 23.6278 12.519 23.6278 12.6119L23.6278 13.7002C23.6278 13.8658 23.4936 14 23.3281 14H21.6808C21.5152 14 21.381 13.8658 21.381 13.7002L21.381 11.3219C21.381 11.2424 21.4126 11.1661 21.4688 11.1099L21.7409 10.8378L22.1679 10.4107C22.1679 10.4107 22.1679 10.4107 22.1679 10.4107C22.168 10.4107 22.168 10.4107 22.168 10.4107L23.2237 9.3549C23.3408 9.23782 23.5306 9.23783 23.6476 9.35491L24.0501 9.75746C24.8281 10.5355 26.0745 10.5594 26.8813 9.82928L26.9194 9.79394L26.9568 9.75746C27.7595 8.95472 27.7595 7.65322 26.9568 6.85048C26.1665 6.06009 24.8927 6.04793 24.0875 6.81401L24.0501 6.85048L22.7463 8.15429C22.7462 8.1544 22.746 8.1544 22.7459 8.15429C22.7457 8.15417 22.7456 8.15417 22.7454 8.15429L20.8574 10.0425C20.8572 10.0427 20.8572 10.0429 20.8574 10.043C20.8575 10.0431 20.8575 10.0433 20.8574 10.0434L19.5537 11.3473C17.8898 13.0113 15.2026 13.028 13.5182 11.3973L13.4675 11.3473C11.7869 9.66654 11.7869 6.94141 13.4675 5.2606C15.1314 3.59661 17.8186 3.57997 19.503 5.21068Z" fill="#06D7A0"/>
    <path d="M9.09862 16C9.32517 16 9.52689 16.022 9.70376 16.066C9.88063 16.11 10.0327 16.16 10.1599 16.216C10.274 16.2657 10.3762 16.319 10.4664 16.3759C10.5098 16.4032 10.5223 16.4599 10.4971 16.5046L9.97157 17.4364C9.94184 17.4891 9.87251 17.5035 9.82216 17.4699C9.78537 17.4454 9.7469 17.4214 9.70674 17.398C9.63917 17.366 9.55869 17.335 9.46528 17.305C9.37188 17.275 9.26555 17.26 9.14632 17.26C9.0231 17.26 8.90982 17.282 8.80648 17.326C8.70314 17.37 8.61272 17.43 8.53521 17.506C8.45771 17.582 8.39709 17.671 8.35337 17.773C8.30965 17.875 8.28779 17.984 8.28779 18.1C8.28779 18.216 8.31064 18.325 8.35635 18.427C8.40206 18.529 8.46466 18.618 8.54415 18.694C8.62365 18.77 8.71705 18.83 8.82437 18.874C8.93168 18.918 9.04894 18.94 9.17613 18.94C9.30331 18.94 9.41659 18.924 9.51596 18.892C9.61532 18.86 9.69879 18.824 9.76636 18.784C9.80494 18.7627 9.84117 18.7394 9.87507 18.7143C9.92836 18.6748 10.0074 18.6854 10.04 18.7431L10.5598 19.6648C10.5836 19.7071 10.5738 19.7607 10.5346 19.7894C10.4423 19.8567 10.3373 19.9175 10.2195 19.972C10.0923 20.028 9.93926 20.08 9.7604 20.128C9.58154 20.176 9.37685 20.2 9.14632 20.2C8.83629 20.2 8.55012 20.149 8.28779 20.047C8.02546 19.945 7.79891 19.802 7.60812 19.618C7.41734 19.434 7.26829 19.213 7.16097 18.955C7.05366 18.697 7 18.412 7 18.1C7 17.78 7.05565 17.491 7.16694 17.233C7.27823 16.975 7.42926 16.754 7.62005 16.57C7.81083 16.386 8.03341 16.245 8.28779 16.147C8.54217 16.049 8.81244 16 9.09862 16ZM12.5016 16C12.7897 16 13.0618 16.055 13.3178 16.165C13.5739 16.275 13.797 16.425 13.987 16.615C14.1771 16.805 14.3271 17.028 14.4371 17.284C14.5472 17.54 14.6022 17.812 14.6022 18.1C14.6022 18.388 14.5472 18.66 14.4371 18.916C14.3271 19.172 14.1771 19.395 13.987 19.585C13.797 19.775 13.5739 19.925 13.3178 20.035C13.0618 20.145 12.7897 20.2 12.5016 20.2C12.2135 20.2 11.9414 20.145 11.6854 20.035C11.4293 19.925 11.2062 19.775 11.0162 19.585C10.8261 19.395 10.6761 19.172 10.566 18.916C10.456 18.66 10.401 18.388 10.401 18.1C10.401 17.812 10.456 17.54 10.566 17.284C10.6761 17.028 10.8261 16.805 11.0162 16.615C11.2062 16.425 11.4293 16.275 11.6854 16.165C11.9414 16.055 12.2135 16 12.5016 16ZM16.0072 16.1C16.0403 16.1 16.0713 16.1164 16.0899 16.1437L17.023 17.5135C17.0628 17.5719 17.1489 17.5718 17.1885 17.5133L18.116 16.1439C18.1346 16.1165 18.1656 16.1 18.1988 16.1H19.1035C19.1587 16.1 19.2035 16.1448 19.2035 16.2V20C19.2035 20.0552 19.1587 20.1 19.1035 20.1H18.0234C17.9681 20.1 17.9233 20.0552 17.9233 20V18.9851C17.9233 18.8867 17.7961 18.8475 17.7406 18.9288L17.1883 19.7393C17.1487 19.7974 17.063 19.7976 17.0231 19.7395L16.465 18.9266C16.4094 18.8456 16.2825 18.8849 16.2825 18.9831V20C16.2825 20.0552 16.2377 20.1 16.1825 20.1H15.1023C15.0471 20.1 15.0023 20.0552 15.0023 20V16.2C15.0023 16.1448 15.0471 16.1 15.1023 16.1H16.0072ZM20.7086 16.1C20.7417 16.1 20.7726 16.1164 20.7913 16.1437L21.7244 17.5135C21.7641 17.5719 21.8503 17.5718 21.8899 17.5133L22.8173 16.1439C22.8359 16.1165 22.8669 16.1 22.9001 16.1H23.8049C23.8601 16.1 23.9049 16.1448 23.9049 16.2V20C23.9049 20.0552 23.8601 20.1 23.8049 20.1H22.7247C22.6695 20.1 22.6247 20.0552 22.6247 20V18.9851C22.6247 18.8867 22.4974 18.8475 22.442 18.9288L21.8896 19.7393C21.85 19.7974 21.7643 19.7976 21.7245 19.7395L21.1664 18.9266C21.1108 18.8456 20.9839 18.8849 20.9839 18.9831V20C20.9839 20.0552 20.9391 20.1 20.8838 20.1H19.8037C19.7485 20.1 19.7037 20.0552 19.7037 20V16.2C19.7037 16.1448 19.7485 16.1 19.8037 16.1H20.7086ZM26.778 16.1C27.0329 16.1 27.2709 16.128 27.4919 16.184C27.713 16.2399 27.9062 16.3279 28.0715 16.4478C28.2368 16.5678 28.3672 16.7247 28.4628 16.9186C28.5584 17.1125 28.6062 17.3474 28.6062 17.6232C28.6062 17.8991 28.5584 18.134 28.4628 18.3279C28.3672 18.5218 28.2368 18.6787 28.0715 18.7987C27.9062 18.9186 27.713 19.0065 27.4919 19.0625C27.3001 19.1111 27.0954 19.1386 26.878 19.145C26.8228 19.1466 26.778 19.1913 26.778 19.2465V20C26.778 20.0552 26.7332 20.1 26.6779 20.1H25.6054C25.5501 20.1 25.5053 20.0552 25.5053 20V16.2C25.5053 16.1448 25.5501 16.1 25.6054 16.1H26.778ZM30.6183 16.1C30.6599 16.1 30.6971 16.1257 30.7118 16.1645L32.1558 19.9645C32.1807 20.0299 32.1323 20.1 32.0623 20.1H31.0155C30.9735 20.1 30.936 20.0738 30.9216 20.0345L30.8376 19.8057C30.8231 19.7663 30.7856 19.7402 30.7437 19.7402H29.6697C29.6278 19.7402 29.5903 19.7663 29.5758 19.8057L29.4918 20.0345C29.4774 20.0738 29.4399 20.1 29.3979 20.1H28.3511C28.2811 20.1 28.2328 20.0299 28.2576 19.9645L29.7016 16.1645C29.7163 16.1257 29.7535 16.1 29.7951 16.1H30.6183ZM32.6694 16.1C32.706 16.1 32.7396 16.12 32.7572 16.1521L33.1023 16.7838C33.1403 16.8535 33.2404 16.8532 33.2781 16.7833L33.6182 16.1526C33.6356 16.1202 33.6695 16.1 33.7062 16.1H34.8998C34.9757 16.1 35.024 16.1812 34.9877 16.2478L33.8387 18.3565C33.8307 18.3712 33.8265 18.3876 33.8265 18.4043V20C33.8265 20.0552 33.7817 20.1 33.7265 20.1H32.6488C32.5935 20.1 32.5488 20.0552 32.5488 20V18.4043C32.5488 18.3876 32.5446 18.3712 32.5366 18.3565L31.3876 16.2478C31.3513 16.1812 31.3995 16.1 31.4754 16.1H32.6694ZM12.5016 17.26C12.3856 17.26 12.2765 17.282 12.1745 17.326C12.0725 17.37 11.9834 17.43 11.9074 17.506C11.8314 17.582 11.7714 17.671 11.7274 17.773C11.6834 17.875 11.6613 17.984 11.6613 18.1C11.6613 18.216 11.6834 18.325 11.7274 18.427C11.7714 18.529 11.8314 18.618 11.9074 18.694C11.9834 18.77 12.0725 18.83 12.1745 18.874C12.2765 18.918 12.3856 18.94 12.5016 18.94C12.6176 18.94 12.7267 18.918 12.8287 18.874C12.9307 18.83 13.0197 18.77 13.0958 18.694C13.1718 18.618 13.2318 18.529 13.2758 18.427C13.3198 18.325 13.3418 18.216 13.3418 18.1C13.3418 17.984 13.3198 17.875 13.2758 17.773C13.2318 17.671 13.1718 17.582 13.0958 17.506C13.0197 17.43 12.9307 17.37 12.8287 17.326C12.7267 17.282 12.6176 17.26 12.5016 17.26ZM30.3 18.3992C30.2671 18.3138 30.1463 18.3138 30.1134 18.3992L29.9887 18.7227C29.9635 18.7882 30.0119 18.8586 30.0821 18.8586H30.3313C30.4015 18.8586 30.4499 18.7882 30.4247 18.7227L30.3 18.3992ZM26.8317 17.1795C26.802 17.1795 26.778 17.2035 26.778 17.2332V18.0133C26.778 18.0429 26.802 18.067 26.8317 18.067C26.999 18.067 27.1195 18.028 27.1932 17.9501C27.2669 17.8721 27.3037 17.7632 27.3037 17.6232C27.3037 17.4833 27.2669 17.3744 27.1932 17.2964C27.1195 17.2184 26.999 17.1795 26.8317 17.1795Z" fill="#285380"/>
</svg>
