<svg width="12" height="15" viewBox="0 0 12 15" fill="none" xmlns="http://www.w3.org/2000/svg">
    <path d="M6.12305 14.085C6.25977 14.085 6.45117 14.0303 6.63574 13.9414C10.5938 11.959 11.9541 10.8242 11.9541 8.37695V3.40723C11.9541 2.4502 11.6396 2.06055 10.7988 1.70508C10.1357 1.43164 7.69531 0.597656 7.07324 0.399414C6.7793 0.310547 6.41699 0.249023 6.12305 0.249023C5.8291 0.249023 5.47363 0.317383 5.17969 0.399414C4.55078 0.59082 2.11035 1.43164 1.44727 1.70508C0.613281 2.05371 0.291992 2.4502 0.291992 3.40723V8.37695C0.291992 10.8242 1.69336 11.8906 5.61719 13.9414C5.79492 14.0371 5.98633 14.085 6.12305 14.085ZM3.58008 9.52539V6.8252C3.58008 6.35352 3.77148 6.10059 4.14062 6.03223V5.29395C4.14062 3.96777 4.94043 3.0791 6.12305 3.0791C7.3125 3.0791 8.11914 3.96777 8.11914 5.29395V6.03906C8.48145 6.10059 8.66602 6.35352 8.66602 6.8252V9.52539C8.66602 10.0928 8.41309 10.3525 7.89355 10.3525H4.35938C3.83984 10.3525 3.58008 10.0928 3.58008 9.52539ZM5.14551 6.00488H7.10742V5.23242C7.10742 4.52832 6.71777 4.06348 6.12305 4.06348C5.53516 4.06348 5.14551 4.52832 5.14551 5.23242V6.00488Z" fill="white"/>
</svg>
