<svg width="134" height="64" viewBox="0 0 134 64" fill="none" xmlns="http://www.w3.org/2000/svg">
    <path d="M35.132 60.9454C35.5786 60.9454 35.6904 61.5546 35.2718 61.7074L29.0648 63.9752C28.8802 64.0428 28.6726 63.9682 28.576 63.7994L27.277 61.5318C27.1268 61.2694 27.3196 60.9454 27.6262 60.9454H35.132ZM53.0814 55.7522L47.1088 62.3684C47.0234 62.463 46.8972 62.5114 46.7692 62.499L42.1748 62.0478C41.79 62.0102 41.6778 61.5122 42.01 61.3182L52.5768 55.153C52.97 54.9236 53.3848 55.416 53.0814 55.7522ZM11.1552 50.793L21.6368 58.471C21.983 58.7246 21.7318 59.2624 21.3104 59.1704L10.8286 56.8834C10.6454 56.8434 10.515 56.6836 10.515 56.4994V51.1082C10.515 50.7846 10.891 50.5994 11.1552 50.793ZM24.313 51.4122L36.3828 56.6518C36.779 56.8238 36.654 57.405 36.2208 57.405H26.946C26.797 57.405 26.6604 57.3238 26.5912 57.1942L23.7962 51.9546C23.6202 51.6248 23.9662 51.2618 24.313 51.4122ZM36.677 46.3228L39.7434 56.1082C39.8444 56.4306 39.5126 56.72 39.1984 56.5836L24.6328 50.2608C24.2936 50.1134 24.3228 49.6316 24.6774 49.525L36.1764 46.0624C36.388 45.9986 36.6118 46.115 36.677 46.3228ZM51.4738 43.7652L41.6708 56.1408C41.4718 56.3922 41.067 56.3194 40.9716 56.015L37.8598 46.0838C37.7896 45.8602 37.9326 45.6262 38.1666 45.582L51.0816 43.1374C51.4448 43.0686 51.7008 43.4786 51.4738 43.7652ZM17.3878 49.7842L21.3384 50.2572C21.4692 50.2728 21.5836 50.3506 21.6448 50.4652L23.7648 54.439C23.9624 54.8098 23.512 55.1872 23.1704 54.9368L17.0996 50.49C16.7704 50.2488 16.98 49.7354 17.3878 49.7842ZM53.3356 44.4194L54.091 49.3646C54.1152 49.5226 54.0396 49.6794 53.8996 49.761L45.212 54.8298C44.8316 55.0518 44.4194 54.593 44.6912 54.25L52.6234 44.2362C52.8394 43.9632 53.2834 44.0774 53.3356 44.4194ZM64 40.5582V45.6166C64 45.7328 63.9476 45.8432 63.8568 45.918L59.294 49.6758C58.9598 49.951 58.4818 49.5778 58.6794 49.196L63.2422 40.38C63.433 40.0112 64 40.1446 64 40.5582ZM11.2726 39.6704L19.5552 48.1516C19.816 48.4186 19.5914 48.859 19.2176 48.8142L14.3662 48.2334C14.2242 48.2164 14.1024 48.1264 14.0462 47.9972L10.6148 40.0968C10.4402 39.6946 10.9642 39.3546 11.2726 39.6704ZM24.0998 33.2456L35.3692 44.4692C35.5804 44.6796 35.489 45.0348 35.2012 45.1216L23.1268 48.7574C22.8608 48.8374 22.5946 48.6332 22.6094 48.3604L23.4142 33.5008C23.4328 33.1596 23.8554 33.0022 24.0998 33.2456ZM22.2604 32.5824L21.4558 47.4356C21.4372 47.7794 21.0094 47.9354 20.7664 47.6868L9.50176 36.152C9.29236 35.9376 9.39156 35.581 9.68296 35.5008L21.7524 32.1826C22.0164 32.11 22.275 32.3136 22.2604 32.5824ZM58.9508 40.5798L55.6684 46.922C55.4918 47.2634 54.973 47.1808 54.9152 46.802L54.2798 42.6432C54.2552 42.4824 54.334 42.323 54.4782 42.2428L58.396 40.0594C58.7414 39.867 59.1308 40.2322 58.9508 40.5798ZM6.34156 40.1416L8.48976 45.6258C8.59396 45.8922 8.38376 46.1756 8.09356 46.1596L5.51576 46.0192C5.29116 46.0068 5.12095 45.8156 5.13855 45.5954L5.56816 40.252C5.60176 39.8344 6.18836 39.7508 6.34156 40.1416ZM14.5408 21.4118L21.5616 30.4502C21.7332 30.671 21.6236 30.9926 21.351 31.0676L9.64976 34.2846C9.33396 34.3714 9.05156 34.0692 9.16656 33.7676L13.8472 21.5122C13.9578 21.2226 14.3498 21.166 14.5408 21.4118ZM5.06276 21.1588L4.07896 33.2324C4.04356 33.6684 3.41876 33.7304 3.29496 33.3106L0.0159586 22.203C-0.0480414 21.9862 0.086557 21.761 0.310557 21.7102L4.57316 20.7442C4.83716 20.6844 5.08436 20.8938 5.06276 21.1588ZM28.2032 14.3804L22.9748 29.315C22.8708 29.6122 22.4714 29.6756 22.2774 29.4258L15.1478 20.2472C14.9932 20.0482 15.0644 19.7602 15.2946 19.653L27.6528 13.897C27.9732 13.7478 28.3186 14.0508 28.2032 14.3804ZM12.719 21.1054L9.85336 28.6088C9.69016 29.0356 9.04176 28.8938 9.07876 28.4392L9.65196 21.4046C9.66616 21.2306 9.79556 21.0866 9.96956 21.051L12.2622 20.582C12.5712 20.5188 12.8298 20.815 12.719 21.1054ZM15.5092 14.9844L13.5912 18.9458C13.5374 19.0568 13.4338 19.1368 13.311 19.1618L11.7238 19.4866C11.3558 19.562 11.0942 19.143 11.3296 18.8552L14.8348 14.5692C15.1326 14.2052 15.7132 14.5628 15.5092 14.9844ZM20.3752 8.6094L27.415 11.995C27.7162 12.1398 27.7136 12.5624 27.4104 12.7036L16.2044 17.923C15.864 18.0816 15.5092 17.733 15.671 17.3988L19.8372 8.7938C19.933 8.596 20.175 8.513 20.3752 8.6094ZM53.4344 11.5494L56.519 17.046C56.7206 17.4052 56.2978 17.7898 55.9484 17.5648L48.9798 13.078C48.69 12.8914 48.762 12.4558 49.097 12.3686L52.9812 11.3592C53.159 11.313 53.3458 11.3914 53.4344 11.5494ZM20.3836 9.501L16.8874 16.722L26.2912 12.3422L20.3836 9.501ZM52.8876 12.21L50.1958 12.9094L55.025 16.0188L52.8876 12.21ZM14.9908 8.41059L9.56076 14.0304C9.27716 14.3238 8.78156 14.0566 8.88136 13.6644L10.0554 9.05299C10.0916 8.91099 10.2052 8.80039 10.3502 8.76599L14.6062 7.75739C14.9942 7.66539 15.2654 8.12619 14.9908 8.41059ZM37.3244 4.99299L44.5334 11.0806C44.8152 11.3186 44.6438 11.7724 44.2722 11.7724H31.7284C31.3858 11.7724 31.2012 11.3774 31.4246 11.1224L36.7594 5.03479C36.9038 4.87019 37.1566 4.85139 37.3244 4.99299ZM42.4454 6.75L50.6276 10.041C50.9818 10.1834 50.9504 10.6856 50.5812 10.7846L47.328 11.6556C47.1996 11.69 47.0624 11.6596 46.9612 11.5742L42.0326 7.41219C41.6878 7.12119 42.0248 6.5808 42.4454 6.75ZM34.5394 5.75879L29.5944 11.4016C29.4756 11.5372 29.2782 11.577 29.1144 11.4982L22.5658 8.34879C22.2254 8.18499 22.2854 7.69159 22.6556 7.61139L34.1494 5.11799C34.5254 5.03639 34.7906 5.47199 34.5394 5.75879ZM37.1046 5.8546L32.6196 10.9722H43.165L37.1046 5.8546ZM44.4774 8.4296L47.3196 10.8296L49.1956 10.3274L44.4774 8.4296ZM33.1248 6.1588L23.982 8.1422L29.1912 10.6474L33.1248 6.1588ZM44.0294 0.76139C44.1196 0.75899 44.2078 0.78619 44.2798 0.83899L51.0396 5.7818C51.4174 6.058 51.0842 6.6366 50.6484 6.4612L38.7112 1.65979C38.3104 1.49859 38.419 0.914394 38.852 0.902594L44.0294 0.76139ZM27.3062 0.0123903L33.3272 1.52819C33.7358 1.63099 33.726 2.20399 33.3142 2.29339L20.0372 5.17359C19.5966 5.26919 19.3564 4.68739 19.7404 4.45459L26.9966 0.058594C27.0892 0.00239394 27.2008 -0.0142097 27.3062 0.0123903Z" fill="#11C3D3"/>
    <path d="M37.6598 22C40.4492 22 41.3197 22.9415 41.3197 24.6843V26.4275C41.3197 26.5379 41.2301 26.6275 41.1197 26.6275H38.5522C38.4418 26.6275 38.3522 26.5379 38.3522 26.4275V25.085C38.3522 24.3638 38.1346 24.2837 37.6598 24.2837C37.185 24.2837 36.9674 24.3638 36.9674 25.085V31.315C36.9674 32.0362 37.185 32.1163 37.6598 32.1163C38.1346 32.1163 38.3522 32.0362 38.3522 31.315V29.9124C38.3522 29.802 38.4418 29.7124 38.5522 29.7124H41.1197C41.2301 29.7124 41.3197 29.802 41.3197 29.9124V31.7157C41.3197 33.4585 40.4492 34.4 37.6598 34.4C34.8704 34.4 34 33.4585 34 31.7157V24.6843C34 22.9415 34.8704 22 37.6598 22ZM46.2598 22C49.0492 22 49.9197 22.9415 49.9197 24.6843V31.7157C49.9197 33.4585 49.0492 34.4 46.2598 34.4C43.4704 34.4 42.6 33.4585 42.6 31.7157V24.6843C42.6 22.9415 43.4704 22 46.2598 22ZM78.8598 22C81.6492 22 82.5197 22.9415 82.5197 24.6843V31.7157C82.5197 33.4585 81.6492 34.4 78.8598 34.4C76.0705 34.4 75.2 33.4585 75.2 31.7157V24.6843C75.2 22.9415 76.0705 22 78.8598 22ZM63.4598 22C66.2492 22 67.1197 22.9415 67.1197 24.6843V26.3473C67.1197 26.4578 67.0301 26.5473 66.9197 26.5473H64.3522C64.2418 26.5473 64.1522 26.4578 64.1522 26.3473V25.085C64.1522 24.3638 63.9346 24.2837 63.4598 24.2837C62.985 24.2837 62.7674 24.3638 62.7674 25.085V31.315C62.7674 32.0362 62.985 32.1163 63.4598 32.1163C63.9346 32.1163 64.1522 32.0362 64.1522 31.315V30.874C64.1522 30.7635 64.0627 30.674 63.9522 30.674H63.6598C63.5494 30.674 63.4598 30.5845 63.4598 30.474V28.6704C63.4598 28.56 63.5494 28.4704 63.6598 28.4704H66.9197C67.0301 28.4704 67.1197 28.56 67.1197 28.6704V31.7157C67.1197 33.4585 66.2492 34.4 63.4598 34.4C60.6705 34.4 59.8 33.4585 59.8 31.7157V24.6843C59.8 22.9415 60.6705 22 63.4598 22ZM107.271 22.2C108.409 22.2 109.568 22.7591 109.568 24.1967V26.992C109.568 27.7108 109.388 28.2499 109.048 28.5894C108.97 28.6682 108.813 28.7666 108.559 28.8652C108.553 28.8674 108.549 28.8729 108.549 28.879V28.879C108.549 28.885 108.553 28.8904 108.558 28.8927C108.793 28.9907 108.95 29.0698 109.048 29.1684C109.388 29.5478 109.568 30.1468 109.568 30.9854L109.598 33.998C109.599 34.1092 109.509 34.2 109.398 34.2H106.872C106.732 34.2 106.652 34.1201 106.632 33.9804C106.592 33.8406 106.573 33.6409 106.573 33.3814V30.7857C106.573 30.2466 106.373 29.987 105.974 29.987H105.375C105.264 29.987 105.175 30.0766 105.175 30.187V34C105.175 34.1105 105.085 34.2 104.975 34.2H102.4C102.29 34.2 102.2 34.1105 102.2 34V22.4C102.2 22.2895 102.29 22.2 102.4 22.2H107.271ZM53.6524 22.2C53.7366 22.2 53.8118 22.2527 53.8405 22.3318L55.7846 27.6923C55.7863 27.6969 55.7907 27.7 55.7956 27.7V27.7C55.8021 27.7 55.8073 27.6947 55.8073 27.6882L55.7881 22.4007C55.7877 22.29 55.8774 22.2 55.9881 22.2H58.4C58.5105 22.2 58.6 22.2895 58.6 22.4V34C58.6 34.1104 58.5105 34.2 58.4 34.2H55.9488C55.864 34.2 55.7885 34.1465 55.7602 34.0666L53.8154 28.5678C53.8137 28.5631 53.8093 28.56 53.8044 28.56V28.56C53.7979 28.56 53.7927 28.5652 53.7927 28.5717L53.8119 33.9992C53.8123 34.11 53.7226 34.2 53.6119 34.2H51.2C51.0895 34.2 51 34.1104 51 34V22.4C51 22.2895 51.0895 22.2 51.2 22.2H53.6524ZM71.2 22.2C71.3105 22.2 71.4 22.2895 71.4 22.4V31.8C71.4 31.9104 71.4895 32 71.6 32H74.2C74.3104 32 74.4 32.0895 74.4 32.2V34C74.4 34.1104 74.3104 34.2 74.2 34.2H68.6C68.4896 34.2 68.4 34.1104 68.4 34V22.4C68.4 22.2895 68.4896 22.2 68.6 22.2H71.2ZM86.7542 22.2C86.8439 22.2 86.9226 22.2597 86.9468 22.3461L88.5744 28.1606C88.5776 28.172 88.5881 28.18 88.6 28.18V28.18C88.6119 28.18 88.6224 28.172 88.6256 28.1606L90.2532 22.3461C90.2774 22.2597 90.3561 22.2 90.4458 22.2H93.2C93.3105 22.2 93.4 22.2895 93.4 22.4V34C93.4 34.1104 93.3105 34.2 93.2 34.2H90.7982C90.6871 34.2 90.5973 34.1095 90.5982 33.9984L90.6369 28.9119C90.6369 28.9053 90.6316 28.9 90.6251 28.9V28.9C90.6201 28.9 90.6157 28.9031 90.614 28.9077L88.7952 33.8676C88.756 33.9745 88.6368 34.0296 88.529 33.9908C88.4713 33.9699 88.4258 33.9248 88.4048 33.8676L86.586 28.9077C86.5843 28.9031 86.5799 28.9 86.5749 28.9V28.9C86.5684 28.9 86.5631 28.9053 86.5631 28.9119L86.6018 33.9984C86.6027 34.1095 86.5129 34.2 86.4018 34.2H84C83.8896 34.2 83.8 34.1104 83.8 34V22.4C83.8 22.2895 83.8896 22.2 84 22.2H86.7542ZM101 22.2C101.11 22.2 101.2 22.2895 101.2 22.4V24.2C101.2 24.3104 101.11 24.4 101 24.4H97.8C97.6895 24.4 97.6 24.4895 97.6 24.6V26.5C97.6 26.6104 97.6895 26.7 97.8 26.7H100.4C100.51 26.7 100.6 26.7895 100.6 26.9V28.7C100.6 28.8104 100.51 28.9 100.4 28.9H97.8C97.6895 28.9 97.6 28.9895 97.6 29.1V31.8C97.6 31.9104 97.6895 32 97.8 32H101C101.11 32 101.2 32.0895 101.2 32.2V34C101.2 34.1104 101.11 34.2 101 34.2H94.8C94.6896 34.2 94.6 34.1104 94.6 34V22.4C94.6 22.2895 94.6896 22.2 94.8 22.2H101ZM116.654 22.2C116.753 22.2 116.837 22.2727 116.852 22.3708L118.566 33.9707C118.584 34.0915 118.49 34.2 118.368 34.2H115.96C115.859 34.2 115.773 34.1241 115.761 34.0234L115.567 32.3765C115.555 32.2758 115.469 32.2 115.368 32.2H113.85C113.749 32.2 113.664 32.2747 113.652 32.3746L113.44 34.0254C113.427 34.1252 113.342 34.2 113.242 34.2H110.832C110.71 34.2 110.616 34.0915 110.634 33.9707L112.348 22.3708C112.363 22.2727 112.447 22.2 112.546 22.2H116.654ZM125.8 22.2C125.91 22.2 126 22.2895 126 22.4V24.2C126 24.3104 125.91 24.4 125.8 24.4H123.9C123.79 24.4 123.7 24.4895 123.7 24.6V34C123.7 34.1104 123.61 34.2 123.5 34.2H120.9C120.79 34.2 120.7 34.1104 120.7 34V24.6C120.7 24.4895 120.61 24.4 120.5 24.4H118.6C118.49 24.4 118.4 24.3104 118.4 24.2V22.4C118.4 22.2895 118.49 22.2 118.6 22.2H125.8ZM133.2 22.2C133.31 22.2 133.4 22.2895 133.4 22.4V24.2C133.4 24.3104 133.31 24.4 133.2 24.4H130C129.89 24.4 129.8 24.4895 129.8 24.6V26.5C129.8 26.6104 129.89 26.7 130 26.7H132.6C132.71 26.7 132.8 26.7895 132.8 26.9V28.7C132.8 28.8104 132.71 28.9 132.6 28.9H130C129.89 28.9 129.8 28.9895 129.8 29.1V31.8C129.8 31.9104 129.89 32 130 32H133.2C133.31 32 133.4 32.0895 133.4 32.2V34C133.4 34.1104 133.31 34.2 133.2 34.2H127C126.89 34.2 126.8 34.1104 126.8 34V22.4C126.8 22.2895 126.89 22.2 127 22.2H133.2ZM46.2598 24.2837C45.785 24.2837 45.5674 24.3638 45.5674 25.085V31.315C45.5674 32.0362 45.785 32.1163 46.2598 32.1163C46.7346 32.1163 46.9522 32.0362 46.9522 31.315V25.085C46.9522 24.3638 46.7346 24.2837 46.2598 24.2837ZM78.8598 24.2837C78.3851 24.2837 78.1674 24.3638 78.1674 25.085V31.315C78.1674 32.0362 78.3851 32.1163 78.8598 32.1163C79.3346 32.1163 79.5522 32.0362 79.5522 31.315V25.085C79.5522 24.3638 79.3346 24.2837 78.8598 24.2837ZM114.622 24.6196C114.621 24.6084 114.611 24.6 114.6 24.6V24.6C114.589 24.6 114.579 24.6084 114.578 24.6196L113.957 29.7761C113.943 29.8951 114.036 30 114.156 30H115.044C115.164 30 115.257 29.8951 115.243 29.7761L114.622 24.6196ZM106.173 24.3963H105.375C105.264 24.3963 105.175 24.4859 105.175 24.5963V27.5907C105.175 27.7011 105.264 27.7907 105.375 27.7907H106.173C106.433 27.7907 106.573 27.5311 106.573 26.992V25.195C106.573 24.6559 106.433 24.3963 106.173 24.3963Z" fill="white"/>
</svg>
