<svg width="202" height="210" viewBox="0 0 202 210" fill="none" xmlns="http://www.w3.org/2000/svg">
    <g filter="url(#filter0_d_148_648)">
        <rect x="10" width="182" height="190" rx="20" fill="#2C4152"/>
    </g>
    <path d="M100.188 74.5496C100.705 74.3198 101.295 74.3198 101.812 74.5496L102.625 72.722L101.812 74.5496L133.812 88.7719C134.535 89.0929 135 89.8091 135 90.5995V112C135 133.029 120.645 152.645 101.426 157.826C101.148 157.901 100.852 157.901 100.574 157.826C81.3551 152.645 67 133.029 67 112V90.5995C67 89.8091 67.4655 89.0929 68.1877 88.7719L100.188 74.5496Z" fill="#285380" stroke="#32EEFF" stroke-width="4"/>
    <path d="M98.6211 127.168C99.418 127.168 100.039 126.863 100.461 126.219L111.383 109.52C111.688 109.051 111.816 108.617 111.816 108.207C111.816 107.105 110.996 106.309 109.871 106.309C109.098 106.309 108.617 106.59 108.148 107.328L98.5625 122.445L93.6992 116.41C93.2656 115.895 92.7969 115.66 92.1406 115.66C91.0039 115.66 90.1836 116.469 90.1836 117.57C90.1836 118.062 90.3359 118.496 90.7578 118.977L96.8047 126.301C97.3086 126.898 97.8711 127.168 98.6211 127.168Z" fill="#32EEFF"/>
    <path d="M50.9858 40.5653C50.9176 39.8778 50.625 39.3437 50.108 38.9631C49.5909 38.5824 48.8892 38.392 48.0028 38.392C47.4006 38.392 46.892 38.4773 46.4773 38.6477C46.0625 38.8125 45.7443 39.0426 45.5227 39.3381C45.3068 39.6335 45.1989 39.9688 45.1989 40.3438C45.1875 40.6562 45.2528 40.929 45.3949 41.1619C45.5426 41.3949 45.7443 41.5966 46 41.767C46.2557 41.9318 46.5511 42.0767 46.8864 42.2017C47.2216 42.321 47.5795 42.4233 47.9602 42.5085L49.5284 42.8835C50.2898 43.054 50.9886 43.2812 51.625 43.5653C52.2614 43.8494 52.8125 44.1989 53.2784 44.6136C53.7443 45.0284 54.1051 45.517 54.3608 46.0795C54.6222 46.642 54.7557 47.2869 54.7614 48.0142C54.7557 49.0824 54.483 50.0085 53.9432 50.7926C53.4091 51.571 52.6364 52.1761 51.625 52.608C50.6193 53.0341 49.4063 53.2472 47.9858 53.2472C46.5767 53.2472 45.3494 53.0312 44.304 52.5994C43.2642 52.1676 42.4517 51.5284 41.8665 50.6818C41.2869 49.8295 40.983 48.7756 40.9545 47.5199H44.5256C44.5653 48.1051 44.733 48.5937 45.0284 48.9858C45.3295 49.3722 45.7301 49.6648 46.2301 49.8636C46.7358 50.0568 47.3068 50.1534 47.9432 50.1534C48.5682 50.1534 49.1108 50.0625 49.571 49.8807C50.0369 49.6989 50.3977 49.446 50.6534 49.1222C50.9091 48.7983 51.0369 48.4261 51.0369 48.0057C51.0369 47.6136 50.9205 47.2841 50.6875 47.017C50.4602 46.75 50.125 46.5227 49.6818 46.3352C49.2443 46.1477 48.7074 45.9773 48.071 45.8239L46.1705 45.3466C44.6989 44.9886 43.5369 44.429 42.6847 43.6676C41.8324 42.9062 41.4091 41.8807 41.4148 40.5909C41.4091 39.5341 41.6903 38.6108 42.2585 37.821C42.8324 37.0312 43.6193 36.4148 44.6193 35.9716C45.6193 35.5284 46.7557 35.3068 48.0284 35.3068C49.3239 35.3068 50.4545 35.5284 51.4205 35.9716C52.392 36.4148 53.1477 37.0312 53.6875 37.821C54.2273 38.6108 54.5057 39.5256 54.5227 40.5653H50.9858ZM57.2436 53V35.5455H69.005V38.5881H60.9339V42.7472H68.3999V45.7898H60.9339V49.9574H69.0391V53H57.2436ZM87.3395 41.6562H83.6065C83.5384 41.1733 83.3991 40.7443 83.1889 40.3693C82.9787 39.9886 82.7088 39.6648 82.3793 39.3977C82.0497 39.1307 81.669 38.9261 81.2372 38.7841C80.8111 38.642 80.348 38.571 79.848 38.571C78.9446 38.571 78.1577 38.7955 77.4872 39.2443C76.8168 39.6875 76.2969 40.3352 75.9276 41.1875C75.5582 42.0341 75.3736 43.0625 75.3736 44.2727C75.3736 45.517 75.5582 46.5625 75.9276 47.4091C76.3026 48.2557 76.8253 48.8949 77.4957 49.3267C78.1662 49.7585 78.9418 49.9744 79.8224 49.9744C80.3168 49.9744 80.7741 49.9091 81.1946 49.7784C81.6207 49.6477 81.9986 49.4574 82.3281 49.2074C82.6577 48.9517 82.9304 48.642 83.1463 48.2784C83.3679 47.9148 83.5213 47.5 83.6065 47.0341L87.3395 47.0511C87.2429 47.8523 87.0014 48.625 86.6151 49.3693C86.2344 50.108 85.7202 50.7699 85.0724 51.3551C84.4304 51.9347 83.6634 52.3949 82.7713 52.7358C81.8849 53.071 80.8821 53.2386 79.7628 53.2386C78.206 53.2386 76.8139 52.8864 75.5866 52.1818C74.3651 51.4773 73.3991 50.4574 72.6889 49.1222C71.9844 47.7869 71.6321 46.1705 71.6321 44.2727C71.6321 42.3693 71.9901 40.75 72.706 39.4148C73.4219 38.0795 74.3935 37.0625 75.6207 36.3636C76.848 35.6591 78.2287 35.3068 79.7628 35.3068C80.7741 35.3068 81.7116 35.4489 82.5753 35.733C83.4446 36.017 84.2145 36.4318 84.8849 36.9773C85.5554 37.517 86.1009 38.179 86.5213 38.9631C86.9474 39.7472 87.2202 40.6449 87.3395 41.6562ZM100.767 35.5455H104.457V46.8807C104.457 48.1534 104.153 49.267 103.545 50.2216C102.943 51.1761 102.099 51.9205 101.014 52.4545C99.929 52.983 98.6648 53.2472 97.2216 53.2472C95.7727 53.2472 94.5057 52.983 93.4205 52.4545C92.3352 51.9205 91.4915 51.1761 90.8892 50.2216C90.2869 49.267 89.9858 48.1534 89.9858 46.8807V35.5455H93.6761V46.5653C93.6761 47.2301 93.821 47.821 94.1108 48.3381C94.4063 48.8551 94.821 49.2614 95.3551 49.5568C95.8892 49.8523 96.5114 50 97.2216 50C97.9375 50 98.5597 49.8523 99.0881 49.5568C99.6222 49.2614 100.034 48.8551 100.324 48.3381C100.619 47.821 100.767 47.2301 100.767 46.5653V35.5455ZM107.494 53V35.5455H114.38C115.698 35.5455 116.823 35.7812 117.755 36.2528C118.692 36.7187 119.406 37.3807 119.894 38.2386C120.388 39.0909 120.636 40.0937 120.636 41.2472C120.636 42.4062 120.386 43.4034 119.886 44.2386C119.386 45.0682 118.661 45.7045 117.712 46.1477C116.769 46.5909 115.627 46.8125 114.286 46.8125H109.675V43.8466H113.69C114.394 43.8466 114.979 43.75 115.445 43.5568C115.911 43.3636 116.258 43.0739 116.485 42.6875C116.718 42.3011 116.835 41.821 116.835 41.2472C116.835 40.6676 116.718 40.179 116.485 39.7812C116.258 39.3835 115.908 39.0824 115.437 38.8778C114.971 38.6676 114.383 38.5625 113.673 38.5625H111.184V53H107.494ZM116.92 45.0568L121.258 53H117.184L112.94 45.0568H116.92ZM126.934 35.5455V53H123.244V35.5455H126.934ZM129.305 38.5881V35.5455H143.641V38.5881H138.297V53H134.649V38.5881H129.305ZM144.979 35.5455H149.112L153.092 43.0625H153.263L157.243 35.5455H161.376L155.01 46.8295V53H151.345V46.8295L144.979 35.5455Z" fill="white"/>
    <defs>
        <filter id="filter0_d_148_648" x="0" y="0" width="202" height="210" filterUnits="userSpaceOnUse" color-interpolation-filters="sRGB">
            <feFlood flood-opacity="0" result="BackgroundImageFix"/>
            <feColorMatrix in="SourceAlpha" type="matrix" values="0 0 0 0 0 0 0 0 0 0 0 0 0 0 0 0 0 0 127 0" result="hardAlpha"/>
            <feOffset dy="10"/>
            <feGaussianBlur stdDeviation="5"/>
            <feComposite in2="hardAlpha" operator="out"/>
            <feColorMatrix type="matrix" values="0 0 0 0 0 0 0 0 0 0 0 0 0 0 0 0 0 0 0.15 0"/>
            <feBlend mode="normal" in2="BackgroundImageFix" result="effect1_dropShadow_148_648"/>
            <feBlend mode="normal" in="SourceGraphic" in2="effect1_dropShadow_148_648" result="shape"/>
        </filter>
    </defs>
</svg>
