<svg width="202" height="170" viewBox="0 0 202 170" fill="none" xmlns="http://www.w3.org/2000/svg">
    <g filter="url(#filter0_d_148_766)">
        <rect x="10" width="182" height="150" rx="20" fill="#32EEFF"/>
    </g>
    <path d="M43.8594 112L57.125 85.75V85.5312H41.6719V80H64.125V85.6094L50.8438 112H43.8594ZM67.2148 112.406C66.1836 112.406 65.2982 112.042 64.5586 111.312C63.8294 110.573 63.4648 109.687 63.4648 108.656C63.4648 107.635 63.8294 106.76 64.5586 106.031C65.2982 105.302 66.1836 104.937 67.2148 104.937C68.2148 104.937 69.0898 105.302 69.8398 106.031C70.5898 106.76 70.9648 107.635 70.9648 108.656C70.9648 109.344 70.7878 109.974 70.4336 110.547C70.0898 111.109 69.6367 111.562 69.0742 111.906C68.5117 112.24 67.8919 112.406 67.2148 112.406ZM87.1641 112.437C84.8307 112.437 82.7526 112.036 80.9297 111.234C79.1172 110.422 77.6849 109.307 76.6328 107.891C75.5911 106.464 75.0547 104.818 75.0234 102.953H81.8359C81.8776 103.734 82.1328 104.422 82.6016 105.016C83.0807 105.599 83.7161 106.052 84.5078 106.375C85.2995 106.698 86.1901 106.859 87.1797 106.859C88.2109 106.859 89.1224 106.677 89.9141 106.312C90.7057 105.948 91.3255 105.443 91.7734 104.797C92.2214 104.151 92.4453 103.406 92.4453 102.562C92.4453 101.708 92.2057 100.953 91.7266 100.297C91.2578 99.6302 90.5807 99.1094 89.6953 98.7344C88.8203 98.3594 87.7786 98.1719 86.5703 98.1719H83.5859V93.2031H86.5703C87.5911 93.2031 88.4922 93.026 89.2734 92.6719C90.0651 92.3177 90.6797 91.8281 91.1172 91.2031C91.5547 90.5677 91.7734 89.8281 91.7734 88.9844C91.7734 88.1823 91.5807 87.4792 91.1953 86.875C90.8203 86.2604 90.2891 85.7812 89.6016 85.4375C88.9245 85.0937 88.1328 84.9219 87.2266 84.9219C86.3099 84.9219 85.4714 85.0885 84.7109 85.4219C83.9505 85.7448 83.3411 86.2083 82.8828 86.8125C82.4245 87.4167 82.1797 88.125 82.1484 88.9375H75.6641C75.6953 87.0937 76.2214 85.4687 77.2422 84.0625C78.263 82.6562 79.638 81.5573 81.3672 80.7656C83.1068 79.9635 85.0703 79.5625 87.2578 79.5625C89.4661 79.5625 91.3984 79.9635 93.0547 80.7656C94.7109 81.5677 95.9974 82.651 96.9141 84.0156C97.8411 85.3698 98.2995 86.8906 98.2891 88.5781C98.2995 90.3698 97.7422 91.8646 96.6172 93.0625C95.5026 94.2604 94.0495 95.0208 92.2578 95.3437V95.5937C94.612 95.8958 96.4036 96.7135 97.6328 98.0469C98.8724 99.3698 99.487 101.026 99.4766 103.016C99.487 104.839 98.9609 106.458 97.8984 107.875C96.8464 109.292 95.3932 110.406 93.5391 111.219C91.6849 112.031 89.5599 112.437 87.1641 112.437ZM104.34 112V107.125L115.73 96.5781C116.699 95.6406 117.512 94.7969 118.168 94.0469C118.835 93.2969 119.34 92.5625 119.684 91.8437C120.027 91.1146 120.199 90.3281 120.199 89.4844C120.199 88.5469 119.986 87.7396 119.559 87.0625C119.132 86.375 118.548 85.849 117.809 85.4844C117.069 85.1094 116.23 84.9219 115.293 84.9219C114.314 84.9219 113.46 85.1198 112.73 85.5156C112.001 85.9115 111.439 86.4792 111.043 87.2187C110.647 87.9583 110.449 88.8385 110.449 89.8594H104.027C104.027 87.7656 104.501 85.9479 105.449 84.4062C106.397 82.8646 107.725 81.6719 109.434 80.8281C111.142 79.9844 113.111 79.5625 115.34 79.5625C117.632 79.5625 119.626 79.9687 121.324 80.7812C123.033 81.5833 124.361 82.6979 125.309 84.125C126.257 85.5521 126.73 87.1875 126.73 89.0312C126.73 90.2396 126.491 91.4323 126.012 92.6094C125.543 93.7865 124.704 95.0937 123.496 96.5312C122.288 97.9583 120.585 99.6719 118.387 101.672L113.715 106.25V106.469H127.152V112H104.34ZM152.086 94.8437L145.992 95.2187C145.888 94.6979 145.664 94.2292 145.32 93.8125C144.977 93.3854 144.523 93.0469 143.961 92.7969C143.409 92.5365 142.747 92.4062 141.977 92.4062C140.945 92.4062 140.076 92.625 139.367 93.0625C138.659 93.4896 138.305 94.0625 138.305 94.7812C138.305 95.3542 138.534 95.8385 138.992 96.2344C139.451 96.6302 140.237 96.9479 141.352 97.1875L145.695 98.0625C148.029 98.5417 149.768 99.3125 150.914 100.375C152.06 101.437 152.633 102.833 152.633 104.562C152.633 106.135 152.169 107.516 151.242 108.703C150.326 109.891 149.065 110.818 147.461 111.484C145.867 112.141 144.029 112.469 141.945 112.469C138.768 112.469 136.237 111.807 134.352 110.484C132.477 109.151 131.378 107.339 131.055 105.047L137.602 104.703C137.799 105.672 138.279 106.411 139.039 106.922C139.799 107.422 140.773 107.672 141.961 107.672C143.128 107.672 144.065 107.448 144.773 107C145.492 106.542 145.857 105.953 145.867 105.234C145.857 104.63 145.602 104.135 145.102 103.75C144.602 103.354 143.831 103.052 142.789 102.844L138.633 102.016C136.289 101.547 134.544 100.734 133.398 99.5781C132.263 98.4219 131.695 96.9479 131.695 95.1562C131.695 93.6146 132.112 92.2865 132.945 91.1719C133.789 90.0573 134.971 89.1979 136.492 88.5937C138.023 87.9896 139.815 87.6875 141.867 87.6875C144.898 87.6875 147.284 88.3281 149.023 89.6094C150.773 90.8906 151.794 92.6354 152.086 94.8437Z" fill="#285380"/>
    <path d="M50.9858 40.5653C50.9176 39.8778 50.625 39.3437 50.108 38.9631C49.5909 38.5824 48.8892 38.392 48.0028 38.392C47.4006 38.392 46.892 38.4773 46.4773 38.6477C46.0625 38.8125 45.7443 39.0426 45.5227 39.3381C45.3068 39.6335 45.1989 39.9688 45.1989 40.3438C45.1875 40.6562 45.2528 40.929 45.3949 41.1619C45.5426 41.3949 45.7443 41.5966 46 41.767C46.2557 41.9318 46.5511 42.0767 46.8864 42.2017C47.2216 42.321 47.5795 42.4233 47.9602 42.5085L49.5284 42.8835C50.2898 43.054 50.9886 43.2812 51.625 43.5653C52.2614 43.8494 52.8125 44.1989 53.2784 44.6136C53.7443 45.0284 54.1051 45.517 54.3608 46.0795C54.6222 46.642 54.7557 47.2869 54.7614 48.0142C54.7557 49.0824 54.483 50.0085 53.9432 50.7926C53.4091 51.571 52.6364 52.1761 51.625 52.608C50.6193 53.0341 49.4063 53.2472 47.9858 53.2472C46.5767 53.2472 45.3494 53.0312 44.304 52.5994C43.2642 52.1676 42.4517 51.5284 41.8665 50.6818C41.2869 49.8295 40.983 48.7756 40.9545 47.5199H44.5256C44.5653 48.1051 44.733 48.5937 45.0284 48.9858C45.3295 49.3722 45.7301 49.6648 46.2301 49.8636C46.7358 50.0568 47.3068 50.1534 47.9432 50.1534C48.5682 50.1534 49.1108 50.0625 49.571 49.8807C50.0369 49.6989 50.3977 49.446 50.6534 49.1222C50.9091 48.7983 51.0369 48.4261 51.0369 48.0057C51.0369 47.6136 50.9205 47.2841 50.6875 47.017C50.4602 46.75 50.125 46.5227 49.6818 46.3352C49.2443 46.1477 48.7074 45.9773 48.071 45.8239L46.1705 45.3466C44.6989 44.9886 43.5369 44.429 42.6847 43.6676C41.8324 42.9062 41.4091 41.8807 41.4148 40.5909C41.4091 39.5341 41.6903 38.6108 42.2585 37.821C42.8324 37.0312 43.6193 36.4148 44.6193 35.9716C45.6193 35.5284 46.7557 35.3068 48.0284 35.3068C49.3239 35.3068 50.4545 35.5284 51.4205 35.9716C52.392 36.4148 53.1477 37.0312 53.6875 37.821C54.2273 38.6108 54.5057 39.5256 54.5227 40.5653H50.9858ZM57.2436 53V35.5455H64.13C65.4538 35.5455 66.5817 35.7983 67.5135 36.304C68.4453 36.804 69.1555 37.5 69.6442 38.392C70.1385 39.2784 70.3857 40.3011 70.3857 41.4602C70.3857 42.6193 70.1357 43.642 69.6357 44.5284C69.1357 45.4148 68.4112 46.1051 67.4624 46.5994C66.5192 47.0937 65.3771 47.3409 64.0362 47.3409H59.647V44.3835H63.4396C64.1499 44.3835 64.7351 44.2614 65.1953 44.017C65.6612 43.767 66.0078 43.4233 66.2351 42.9858C66.468 42.5426 66.5845 42.0341 66.5845 41.4602C66.5845 40.8807 66.468 40.375 66.2351 39.9432C66.0078 39.5057 65.6612 39.1676 65.1953 38.929C64.7294 38.6847 64.1385 38.5625 63.4226 38.5625H60.9339V53H57.2436ZM72.7827 53V35.5455H84.544V38.5881H76.473V42.7472H83.9389V45.7898H76.473V49.9574H84.5781V53H72.7827ZM87.478 53V35.5455H99.2393V38.5881H91.1683V42.7472H98.6342V45.7898H91.1683V49.9574H99.2734V53H87.478ZM108.361 53H102.173V35.5455H108.412C110.168 35.5455 111.679 35.8949 112.946 36.5938C114.213 37.2869 115.188 38.2841 115.869 39.5852C116.557 40.8864 116.901 42.4432 116.901 44.2557C116.901 46.0739 116.557 47.6364 115.869 48.9432C115.188 50.25 114.207 51.2528 112.929 51.9517C111.656 52.6506 110.134 53 108.361 53ZM105.864 49.8381H108.207C109.298 49.8381 110.216 49.6449 110.96 49.2585C111.71 48.8665 112.273 48.2614 112.648 47.4432C113.028 46.6193 113.219 45.5568 113.219 44.2557C113.219 42.9659 113.028 41.9119 112.648 41.0938C112.273 40.2756 111.713 39.6733 110.969 39.2869C110.224 38.9006 109.307 38.7074 108.216 38.7074H105.864V49.8381Z" fill="#285380"/>
    <defs>
        <filter id="filter0_d_148_766" x="0" y="0" width="202" height="170" filterUnits="userSpaceOnUse" color-interpolation-filters="sRGB">
            <feFlood flood-opacity="0" result="BackgroundImageFix"/>
            <feColorMatrix in="SourceAlpha" type="matrix" values="0 0 0 0 0 0 0 0 0 0 0 0 0 0 0 0 0 0 127 0" result="hardAlpha"/>
            <feOffset dy="10"/>
            <feGaussianBlur stdDeviation="5"/>
            <feComposite in2="hardAlpha" operator="out"/>
            <feColorMatrix type="matrix" values="0 0 0 0 0 0 0 0 0 0 0 0 0 0 0 0 0 0 0.15 0"/>
            <feBlend mode="normal" in2="BackgroundImageFix" result="effect1_dropShadow_148_766"/>
            <feBlend mode="normal" in="SourceGraphic" in2="effect1_dropShadow_148_766" result="shape"/>
        </filter>
    </defs>
</svg>
