<svg width="87" height="50" viewBox="0 0 87 50" fill="none" xmlns="http://www.w3.org/2000/svg">
    <path fill-rule="evenodd" clip-rule="evenodd" d="M38.7244 3.89077L38.5678 3.7367C33.3693 -1.29641 25.0752 -1.24505 19.9398 3.89077C14.7526 9.07847 14.7526 17.4894 19.9398 22.6771L20.0964 22.8312C25.2949 27.8643 33.589 27.8129 38.7244 22.6771L42.7481 18.6525C42.7485 18.6522 42.7485 18.6516 42.7481 18.6512C42.7477 18.6509 42.7477 18.6503 42.7481 18.6499L48.5755 12.8219C48.5759 12.8216 48.5765 12.8216 48.5768 12.8219C48.5772 12.8223 48.5778 12.8223 48.5781 12.8219L52.6023 8.79783L52.7177 8.68524C55.2029 6.32081 59.1344 6.35834 61.5737 8.79783C64.051 11.2754 64.051 15.2924 61.5737 17.77L61.4582 17.8826L61.3407 17.9917C58.8506 20.2453 55.0035 20.1714 52.6023 17.77L51.3601 16.5276C50.9988 16.1662 50.413 16.1662 50.0517 16.5276L46.7933 19.7862L46.7931 19.7863L46.7929 19.7863L45.4749 21.1044L44.6352 21.9442C44.4617 22.1178 44.3642 22.3531 44.3642 22.5985L44.3644 29.9391C44.3644 30.4501 44.7786 30.8643 45.2896 30.8643H50.3738C50.8848 30.8643 51.299 30.45 51.299 29.939L51.2988 26.5801C51.2987 26.2933 51.1645 26.0243 50.9436 25.8415C50.7943 25.7179 50.647 25.5905 50.5019 25.4593C50.3345 25.308 50.1701 25.1517 50.0087 24.9903L49.8547 24.8337L49.6702 24.6393C49.6341 24.6005 49.5982 24.5615 49.5627 24.5224L49.4727 24.4223L49.3719 24.3078L49.2892 24.2118L49.2118 24.1204L49.1148 24.0033L49.0398 23.9109C49.0052 23.8679 48.971 23.8248 48.9371 23.7815C48.935 23.7789 48.9385 23.7755 48.9412 23.7776C54.152 27.8344 61.6903 27.4676 66.4803 22.6771C71.6675 17.4894 71.6675 9.07847 66.4803 3.89077C61.2931 -1.29693 52.8829 -1.29693 47.6957 3.89077L43.6717 7.91437C43.6711 7.9149 43.6711 7.91578 43.6717 7.91631C43.6722 7.91685 43.6722 7.91772 43.6717 7.91826L37.8449 13.7456C37.8444 13.7461 37.8435 13.7461 37.8429 13.7456C37.8424 13.7451 37.8415 13.7451 37.841 13.7456L33.8178 17.77L33.7024 17.8826C31.2172 20.2471 27.2857 20.2095 24.8464 17.77C22.3691 15.2924 22.3691 11.2754 24.8464 8.79783C27.3238 6.32023 31.3404 6.32023 33.8178 8.79783L35.0603 10.0406C35.4216 10.4019 36.0074 10.4019 36.3687 10.0406L39.967 6.44196C40.3283 6.0806 40.3283 5.49472 39.967 5.13337L38.7244 3.89077ZM49.0398 23.9109C49.0646 23.9417 49.0896 23.9725 49.1148 24.0033C49.1434 24.0382 49.1721 24.073 49.2011 24.1076C49.1466 24.0424 49.0928 23.9769 49.0398 23.9109ZM49.2011 24.1076C49.2303 24.1425 49.2596 24.1772 49.2892 24.2118C49.3019 24.2267 49.3146 24.2415 49.3273 24.2564C49.2885 24.2112 49.25 24.1659 49.2118 24.1204C49.2082 24.1161 49.2047 24.1119 49.2011 24.1076ZM49.3719 24.3078C49.4052 24.3461 49.4388 24.3843 49.4727 24.4223C49.5025 24.4558 49.5325 24.4891 49.5627 24.5224L49.5628 24.5225C49.4983 24.4515 49.4346 24.3799 49.3719 24.3078ZM8.34498 37.2407C7.79907 37.1049 7.1765 37.037 6.47725 37.037C5.59399 37.037 4.7598 37.1882 3.97468 37.4907C3.18955 37.7932 2.50257 38.2283 1.91373 38.7962C1.32489 39.3642 0.858726 40.0463 0.515236 40.8426C0.171745 41.6389 0 42.5308 0 43.5185C0 44.4815 0.165611 45.3611 0.496834 46.1574C0.828057 46.9537 1.28809 47.6358 1.87693 48.2037C2.46577 48.7716 3.16502 49.213 3.97468 49.5278C4.78433 49.8426 5.66759 50 6.62446 50C7.33598 50 7.96775 49.9259 8.51979 49.7778C9.07183 49.6296 9.54413 49.4691 9.93669 49.2963C10.3002 49.1282 10.6244 48.9403 10.9093 48.7326C11.0304 48.6443 11.0607 48.4788 10.987 48.3483L9.38264 45.5035C9.28208 45.3252 9.03817 45.2926 8.8737 45.4145C8.76909 45.492 8.65725 45.5637 8.53819 45.6296C8.32964 45.7531 8.07203 45.8642 7.76534 45.963C7.45865 46.0617 7.10903 46.1111 6.71647 46.1111C6.32391 46.1111 5.96201 46.0432 5.63079 45.9074C5.29957 45.7716 5.01128 45.5864 4.76593 45.3518C4.52058 45.1173 4.32737 44.8426 4.18629 44.5278C4.04521 44.2129 3.97468 43.8765 3.97468 43.5185C3.97468 43.1605 4.04215 42.824 4.17709 42.5092C4.31203 42.1944 4.49911 41.9197 4.73833 41.6852C4.97755 41.4506 5.25663 41.2654 5.57559 41.1296C5.89454 40.9938 6.24417 40.9259 6.62446 40.9259C6.99249 40.9259 7.32064 40.9722 7.60893 41.0648C7.89721 41.1574 8.14563 41.2531 8.35418 41.3518C8.47812 41.424 8.59686 41.498 8.7104 41.5737C8.86582 41.6773 9.07979 41.6331 9.17154 41.4704L10.7936 38.5943C10.8713 38.4565 10.8327 38.2816 10.6989 38.1972C10.4204 38.0215 10.105 37.857 9.75268 37.7037C9.36012 37.5308 8.89088 37.3765 8.34498 37.2407ZM19.4995 37.5462C18.7092 37.2067 17.8694 37.037 16.9803 37.037C16.0911 37.037 15.2514 37.2067 14.461 37.5462C13.6707 37.8858 12.9822 38.3487 12.3956 38.9351C11.809 39.5216 11.3459 40.2098 11.0063 41C10.6667 41.7901 10.4969 42.6296 10.4969 43.5185C10.4969 44.4074 10.6667 45.2469 11.0063 46.037C11.3459 46.8272 11.809 47.5154 12.3956 48.1018C12.9822 48.6883 13.6707 49.1512 14.461 49.4907C15.2514 49.8302 16.0911 50 16.9803 50C17.8694 50 18.7092 49.8302 19.4995 49.4907C20.2899 49.1512 20.9784 48.6883 21.565 48.1018C22.1516 47.5154 22.6147 46.8272 22.9543 46.037C23.2939 45.2469 23.4637 44.4074 23.4637 43.5185C23.4637 42.6296 23.2939 41.7901 22.9543 41C22.6147 40.2098 22.1516 39.5216 21.565 38.9351C20.9784 38.3487 20.2899 37.8858 19.4995 37.5462ZM28.0554 37.4805C27.9979 37.3961 27.9024 37.3456 27.8002 37.3456H25.0073C24.8368 37.3456 24.6986 37.4838 24.6986 37.6543V49.3827C24.6986 49.5532 24.8368 49.6914 25.0073 49.6914H28.3411C28.5116 49.6914 28.6499 49.5532 28.6499 49.3827V46.2443C28.6499 45.941 29.0415 45.8196 29.2131 46.0696L30.9358 48.5788C31.0587 48.7579 31.3232 48.7574 31.4455 48.578L33.1502 46.0765C33.3213 45.8255 33.7141 45.9465 33.7141 46.2503V49.3827C33.7141 49.5532 33.8523 49.6914 34.0229 49.6914H37.3566C37.5271 49.6914 37.6654 49.5532 37.6654 49.3827V37.6543C37.6654 37.4838 37.5271 37.3456 37.3566 37.3456H34.5643C34.4619 37.3456 34.3661 37.3964 34.3087 37.4812L31.4462 41.7076C31.3239 41.8882 31.0581 41.8885 30.9353 41.7083L28.0554 37.4805ZM42.5658 37.4805C42.5083 37.3961 42.4128 37.3456 42.3106 37.3456H39.5178C39.3473 37.3456 39.209 37.4838 39.209 37.6543V49.3827C39.209 49.5532 39.3473 49.6914 39.5178 49.6914H42.8515C43.0221 49.6914 43.1603 49.5532 43.1603 49.3827V46.2443C43.1603 45.941 43.5519 45.8196 43.7236 46.0696L45.4462 48.5788C45.5691 48.7579 45.8336 48.7574 45.9559 48.578L47.6607 46.0765C47.8318 45.8255 48.2246 45.9465 48.2246 46.2503V49.3827C48.2246 49.5532 48.3628 49.6914 48.5333 49.6914H51.8671C52.0376 49.6914 52.1758 49.5532 52.1758 49.3827V37.6543C52.1758 37.4838 52.0376 37.3456 51.8671 37.3456H49.0747C48.9723 37.3456 48.8765 37.3964 48.8191 37.4812L45.9566 41.7076C45.8343 41.8882 45.5685 41.8885 45.4458 41.7083L42.5658 37.4805ZM63.247 37.6048C62.5647 37.432 61.8302 37.3456 61.0434 37.3456H57.4243C57.2537 37.3456 57.1155 37.4838 57.1155 37.6543V49.3827C57.1155 49.5532 57.2537 49.6914 57.4243 49.6914H60.7347C60.9052 49.6914 61.0434 49.5532 61.0434 49.3827V47.057C61.0434 46.8866 61.1817 46.7489 61.3521 46.7439C62.0231 46.7241 62.6548 46.6392 63.247 46.4892C63.9293 46.3165 64.5256 46.045 65.0358 45.6748C65.546 45.3046 65.9486 44.8203 66.2437 44.2218C66.5387 43.6234 66.6862 42.8984 66.6862 42.047C66.6862 41.1956 66.5387 40.4706 66.2437 39.8722C65.9486 39.2737 65.546 38.7894 65.0358 38.4192C64.5256 38.049 63.9293 37.7775 63.247 37.6048ZM73.185 37.5447C73.1395 37.4248 73.0246 37.3456 72.8964 37.3456H70.3555C70.2273 37.3456 70.1124 37.4248 70.0669 37.5447L65.6102 49.2731C65.5335 49.4751 65.6827 49.6914 65.8988 49.6914H69.1297C69.2592 49.6914 69.3749 49.6106 69.4195 49.4891L69.6789 48.7831C69.7235 48.6616 69.8392 48.5808 69.9687 48.5808H73.2832C73.4127 48.5808 73.5284 48.6616 73.573 48.7831L73.8324 49.4891C73.877 49.6106 73.9927 49.6914 74.1222 49.6914H77.3531C77.5692 49.6914 77.7184 49.4751 77.6417 49.2731L73.185 37.5447ZM79.4978 37.5063C79.4437 37.4073 79.3397 37.3456 79.2268 37.3456H75.5418C75.3075 37.3456 75.1586 37.5962 75.2706 37.8019L78.8169 44.3101C78.8416 44.3554 78.8545 44.4062 78.8545 44.4578V49.3827C78.8545 49.5532 78.9928 49.6914 79.1633 49.6914H82.4894C82.66 49.6914 82.7982 49.5532 82.7982 49.3827V44.4578C82.7982 44.4062 82.8111 44.3554 82.8358 44.3101L86.3821 37.8019C86.4942 37.5962 86.3452 37.3456 86.111 37.3456H82.4271C82.3135 37.3456 82.2092 37.4079 82.1553 37.5078L81.1056 39.4547C80.9894 39.6703 80.6803 39.6711 80.5629 39.4562L79.4978 37.5063ZM15.9707 41.1296C16.2856 40.9938 16.6222 40.9259 16.9803 40.9259C17.3384 40.9259 17.6749 40.9938 17.9898 41.1296C18.3048 41.2654 18.5795 41.4506 18.8142 41.6852C19.0488 41.9197 19.234 42.1944 19.3699 42.5092C19.5057 42.824 19.5736 43.1605 19.5736 43.5185C19.5736 43.8765 19.5057 44.2129 19.3699 44.5278C19.234 44.8426 19.0488 45.1173 18.8142 45.3518C18.5795 45.5864 18.3048 45.7716 17.9898 45.9074C17.6749 46.0432 17.3384 46.1111 16.9803 46.1111C16.6222 46.1111 16.2856 46.0432 15.9707 45.9074C15.6558 45.7716 15.3811 45.5864 15.1464 45.3518C14.9118 45.1173 14.7265 44.8426 14.5907 44.5278C14.4549 44.2129 14.3869 43.8765 14.3869 43.5185C14.3869 43.1605 14.4549 42.824 14.5907 42.5092C14.7265 42.1944 14.9118 41.9197 15.1464 41.6852C15.3811 41.4506 15.6558 41.2654 15.9707 41.1296ZM71.3379 44.4421C71.4394 44.1784 71.8125 44.1784 71.914 44.4421L72.2987 45.4403C72.3766 45.6425 72.2273 45.8599 72.0106 45.8599H71.2413C71.0246 45.8599 70.8753 45.6425 70.9532 45.4403L71.3379 44.4421ZM61.0434 40.8432C61.0434 40.7516 61.1177 40.6773 61.2094 40.6773C61.7257 40.6773 62.0976 40.7976 62.325 41.0382C62.5524 41.2789 62.6662 41.6151 62.6662 42.047C62.6662 42.4789 62.5524 42.8151 62.325 43.0558C62.0976 43.2964 61.7257 43.4167 61.2094 43.4167C61.1177 43.4167 61.0434 43.3424 61.0434 43.2508V40.8432Z" fill="#32EEFF"/>
</svg>
