<svg width="1350" height="250" viewBox="0 0 1350 250" fill="none" xmlns="http://www.w3.org/2000/svg">
    <path opacity="0.1" fill-rule="evenodd" clip-rule="evenodd" d="M-120.727 0L-245.117 60.9375H-193.016L-75.669 0H-73.8667L-190.931 60.9375H-138.829L-28.8085 0H-27.0062L-136.745 60.9375H-84.6439L18.052 0H19.8543L-82.5596 60.9375H-30.4575L64.9125 0H66.7148L-28.3732 60.9375H23.7278L111.773 0H113.575L25.8121 60.9375H77.9141L158.633 0H160.436L79.9974 60.9375H132.099L205.494 0H207.296L134.184 60.9375H186.286L252.354 0H254.157L188.369 60.9375H240.471L299.215 0H301.017L242.555 60.9375H294.656L346.075 0H347.878L296.741 60.9375H348.843L392.936 0H394.738L350.927 60.9375H403.028L439.796 0H441.599L405.113 60.9375H457.214L486.657 0H488.459L459.299 60.9375H511.4L533.517 0H535.32L513.484 60.9375H565.586L580.378 0H582.18L567.669 60.9375H619.771L627.238 0H629.041L621.856 60.9375H673.958L674.099 0H675.901L676.041 60.9375H728.143L720.959 0H722.762L730.228 60.9375H782.329L767.82 0H769.622L784.413 60.9375H836.515L814.68 0H816.483L838.599 60.9375H890.7L861.541 0H863.343L892.785 60.9375H944.886L908.401 0H910.204L946.971 60.9375H999.072L955.262 0H957.064L1001.16 60.9375H1053.26L1002.12 0H1003.92L1055.34 60.9375H1107.44L1048.98 0H1050.79L1109.53 60.9375H1161.63L1095.84 0H1097.65L1163.71 60.9375H1215.82L1142.7 0H1144.51L1217.9 60.9375H1270L1189.56 0H1191.37L1272.08 60.9375H1324.19L1236.42 0H1238.23L1326.27 60.9375H1378.37L1283.29 0H1285.09L1380.46 60.9375H1432.56L1330.15 0H1331.95L1434.64 60.9375H1486.74L1377.01 0H1378.81L1488.83 60.9375H1540.93L1423.87 0H1425.67L1543.01 60.9375H1595.12L1470.73 0H1472.53L1597.2 60.9375L1600.4 62.5L1693.1 107.812L1696.3 109.375L1789 154.688L1792.2 156.25L1884.9 201.562L1888.1 203.125L1984 250H1981.04L1885.36 203.125H1816.82L1907.09 250H1904.13L1814.08 203.125H1745.54L1830.17 250H1827.22L1742.8 203.125H1674.26L1753.26 250H1750.3L1671.52 203.125H1602.99L1676.35 250H1673.39L1600.24 203.125H1531.71L1599.44 250H1596.48L1528.97 203.125H1460.43L1522.52 250H1519.56L1457.69 203.125H1389.15L1445.61 250H1442.65L1386.41 203.125H1317.87L1368.7 250H1365.74L1315.13 203.125H1246.6L1291.78 250H1288.82L1243.85 203.125H1175.32L1214.87 250H1211.91L1172.58 203.125H1104.04L1137.96 250H1135L1101.3 203.125H1032.76L1061.04 250H1058.09L1030.02 203.125H961.482L984.131 250H981.173L958.741 203.125H890.205L907.218 250H904.26L887.463 203.125H818.926L830.305 250H827.347L816.186 203.125H747.648L753.392 250H750.434L744.907 203.125H676.37L676.479 250H673.521L673.629 203.125H605.092L599.566 250H596.608L602.35 203.125H533.813L522.653 250H519.695L531.073 203.125H462.536L445.74 250H442.782L459.794 203.125H391.258L368.827 250H365.869L388.516 203.125H319.979L291.914 250H288.956L317.237 203.125H248.702L215.001 250H212.043L245.96 203.125H177.423L138.088 250H135.13L174.681 203.125H106.145L61.1752 250H58.2169L103.403 203.125H34.8663L-15.7379 250H-18.696L32.1259 203.125H-36.4113L-92.6509 250H-95.609L-39.1531 203.125H-107.69L-169.564 250H-172.522L-110.431 203.125H-178.968L-246.477 250H-249.435L-181.709 203.125H-250.245L-323.39 250H-326.348L-252.987 203.125H-321.524L-400.303 250H-403.261L-324.266 203.125H-392.802L-477.216 250H-480.174L-395.543 203.125H-464.081L-554.129 250H-557.087L-466.822 203.125H-535.358L-631.042 250H-634L-538.1 203.125L-534.903 201.562L-442.199 156.25L-439.002 154.688L-346.298 109.375L-343.102 107.812L-250.398 62.5L-247.201 60.9375L-122.529 0H-120.727ZM1789.67 156.25H1726.56L1813.81 201.562H1882.17L1789.67 156.25ZM-310.912 156.25H-374.031L-461.079 201.562H-392.722L-310.912 156.25ZM-245.27 156.25H-308.387L-389.988 201.562H-321.633L-245.27 156.25ZM-179.626 156.25H-242.745L-318.898 201.562H-250.542L-179.626 156.25ZM-113.983 156.25H-177.101L-247.807 201.562H-179.452L-113.983 156.25ZM-48.3389 156.25H-111.458L-176.717 201.562H-108.361L-48.3389 156.25ZM17.3038 156.25H-45.8151L-105.628 201.562H-37.2712L17.3038 156.25ZM82.9478 156.25H19.8289L-34.5366 201.562H33.8199L82.9478 156.25ZM148.591 156.25H85.4716L36.5531 201.562H104.91L148.591 156.25ZM214.233 156.25H151.116L107.644 201.562H175.999L214.233 156.25ZM279.877 156.25H216.758L178.734 201.562H247.09L279.877 156.25ZM345.52 156.25H282.402L249.825 201.562H318.18L345.52 156.25ZM411.164 156.25H348.045L320.915 201.562H389.271L411.164 156.25ZM476.807 156.25H413.689L392.006 201.562H460.361L476.807 156.25ZM542.451 156.25H479.332L463.095 201.562H531.452L542.451 156.25ZM608.094 156.25H544.975L534.185 201.562H602.542L608.094 156.25ZM673.738 156.25H610.619L605.276 201.562H673.633L673.738 156.25ZM-376.556 156.25H-439.674L-532.169 201.562H-463.813L-376.556 156.25ZM739.38 156.25H676.261L676.366 201.562H744.722L739.38 156.25ZM805.024 156.25H741.905L747.457 201.562H815.813L805.024 156.25ZM870.667 156.25H807.548L818.547 201.562H886.903L870.667 156.25ZM936.31 156.25H873.192L889.638 201.562H957.993L936.31 156.25ZM1001.95 156.25H938.835L960.728 201.562H1029.08L1001.95 156.25ZM1067.6 156.25H1004.48L1031.82 201.562H1100.17L1067.6 156.25ZM1133.24 156.25H1070.12L1102.91 201.562H1171.26L1133.24 156.25ZM1198.88 156.25H1135.77L1174 201.562H1242.35L1198.88 156.25ZM1264.53 156.25H1201.41L1245.09 201.562H1313.45L1264.53 156.25ZM1330.17 156.25H1267.05L1316.18 201.562H1384.54L1330.17 156.25ZM1395.81 156.25H1332.69L1387.27 201.562H1455.63L1395.81 156.25ZM1461.46 156.25H1398.34L1458.36 201.562H1526.72L1461.46 156.25ZM1527.1 156.25H1463.98L1529.45 201.562H1597.81L1527.1 156.25ZM1592.74 156.25H1529.62L1600.54 201.562H1668.9L1592.74 156.25ZM1658.39 156.25H1595.27L1671.63 201.562H1739.99L1658.39 156.25ZM1724.03 156.25H1660.91L1742.72 201.562H1811.08L1724.03 156.25ZM1633.98 109.375H1576.28L1658.09 154.688H1721.03L1633.98 109.375ZM-226.281 109.375H-283.982L-371.03 154.688H-308.091L-226.281 109.375ZM-166.273 109.375H-223.973L-305.574 154.688H-242.636L-166.273 109.375ZM-106.264 109.375H-163.965L-240.119 154.688H-177.18L-106.264 109.375ZM-46.2563 109.375H-103.956L-174.662 154.688H-111.725L-46.2563 109.375ZM13.7527 109.375H-43.9481L-109.208 154.688H-46.2692L13.7527 109.375ZM73.7607 109.375H16.0599L-43.7526 154.688H19.1857L73.7607 109.375ZM133.77 109.375H76.069L21.7036 154.688H84.6418L133.77 109.375ZM193.778 109.375H136.077L87.1584 154.688H150.097L193.778 109.375ZM253.786 109.375H196.086L152.615 154.688H215.552L253.786 109.375ZM313.795 109.375H256.094L218.07 154.688H281.008L313.795 109.375ZM373.803 109.375H316.103L283.526 154.688H346.463L373.803 109.375ZM433.812 109.375H376.111L348.981 154.688H411.919L433.812 109.375ZM493.82 109.375H436.12L414.437 154.688H477.374L493.82 109.375ZM553.829 109.375H496.128L479.892 154.688H542.83L553.829 109.375ZM613.837 109.375H556.136L545.347 154.688H608.285L613.837 109.375ZM673.846 109.375H616.145L610.803 154.688H673.741L673.846 109.375ZM733.854 109.375H676.153L676.258 154.688H739.196L733.854 109.375ZM1693.99 109.375H1636.29L1723.55 154.688H1786.48L1693.99 109.375ZM793.863 109.375H736.162L741.714 154.688H804.652L793.863 109.375ZM853.871 109.375H796.17L807.169 154.688H870.107L853.871 109.375ZM913.879 109.375H856.179L872.625 154.688H935.562L913.879 109.375ZM973.888 109.375H916.187L938.08 154.688H1001.02L973.888 109.375ZM1033.9 109.375H976.196L1003.54 154.688H1066.47L1033.9 109.375ZM1093.9 109.375H1036.2L1068.99 154.688H1131.93L1093.9 109.375ZM1153.91 109.375H1096.21L1134.45 154.688H1197.38L1153.91 109.375ZM1213.92 109.375H1156.22L1199.9 154.688H1262.84L1213.92 109.375ZM1273.93 109.375H1216.23L1265.36 154.688H1328.3L1273.93 109.375ZM1333.94 109.375H1276.24L1330.81 154.688H1393.75L1333.94 109.375ZM1393.95 109.375H1336.25L1396.27 154.688H1459.21L1393.95 109.375ZM1453.95 109.375H1396.26L1461.72 154.688H1524.66L1453.95 109.375ZM1513.96 109.375H1456.26L1527.18 154.688H1590.12L1513.96 109.375ZM1573.97 109.375H1516.27L1592.64 154.688H1655.57L1573.97 109.375ZM-286.29 109.375H-343.99L-436.485 154.688H-373.548L-286.29 109.375ZM-196.024 62.5H-248.306L-340.801 107.812H-283.282L-196.024 62.5ZM1598.31 62.5H1546.02L1633.28 107.812H1690.8L1598.31 62.5ZM1543.93 62.5H1491.65L1573.46 107.812H1630.98L1543.93 62.5ZM1489.56 62.5H1437.28L1513.64 107.812H1571.16L1489.56 62.5ZM1435.18 62.5H1382.9L1453.82 107.812H1511.34L1435.18 62.5ZM1380.81 62.5H1328.53L1394 107.812H1451.52L1380.81 62.5ZM1326.44 62.5H1274.15L1334.18 107.812H1391.7L1326.44 62.5ZM1272.06 62.5H1219.78L1274.36 107.812H1331.88L1272.06 62.5ZM1217.69 62.5H1165.41L1214.54 107.812H1272.06L1217.69 62.5ZM1163.32 62.5H1111.03L1154.71 107.812H1212.24L1163.32 62.5ZM1108.94 62.5H1056.66L1094.89 107.812H1152.41L1108.94 62.5ZM1054.57 62.5H1002.29L1035.07 107.812H1092.59L1054.57 62.5ZM1000.2 62.5H947.914L975.253 107.812H1032.77L1000.2 62.5ZM945.822 62.5H893.539L915.432 107.812H972.952L945.822 62.5ZM891.448 62.5H839.166L855.612 107.812H913.131L891.448 62.5ZM837.075 62.5H784.792L795.791 107.812H853.311L837.075 62.5ZM782.702 62.5H730.419L735.971 107.812H793.491L782.702 62.5ZM728.327 62.5H676.045L676.149 107.812H733.67L728.327 62.5ZM673.954 62.5H621.672L616.329 107.812H673.849L673.954 62.5ZM619.58 62.5H567.297L556.508 107.812H614.028L619.58 62.5ZM565.207 62.5H512.924L496.688 107.812H554.208L565.207 62.5ZM510.833 62.5H458.551L436.868 107.812H494.387L510.833 62.5ZM456.459 62.5H404.177L377.047 107.812H434.567L456.459 62.5ZM402.085 62.5H349.804L317.226 107.812H374.745L402.085 62.5ZM347.712 62.5H295.43L257.405 107.812H314.925L347.712 62.5ZM293.338 62.5H241.056L197.585 107.812H255.104L293.338 62.5ZM238.965 62.5H186.682L137.764 107.812H195.284L238.965 62.5ZM184.592 62.5H132.309L77.9437 107.812H135.464L184.592 62.5ZM130.218 62.5H77.9349L18.1224 107.812H75.6426L130.218 62.5ZM75.8444 62.5H23.5618L-41.6977 107.812H15.8225L75.8444 62.5ZM21.4702 62.5H-30.8114L-101.518 107.812H-43.9988L21.4702 62.5ZM-32.903 62.5H-85.1855L-161.339 107.812H-103.819L-32.903 62.5ZM-87.2771 62.5H-139.559L-221.159 107.812H-163.64L-87.2771 62.5ZM-141.65 62.5H-193.933L-280.98 107.812H-223.46L-141.65 62.5Z" fill="url(#paint0_linear_46_1129)"/>
    <defs>
        <linearGradient id="paint0_linear_46_1129" x1="675" y1="0" x2="675" y2="250" gradientUnits="userSpaceOnUse">
            <stop stop-color="#092134"/>
            <stop offset="0.999879" stop-color="#6E869A"/>
        </linearGradient>
    </defs>
</svg>
