<svg width="628" height="30" viewBox="0 0 628 30" fill="none" xmlns="http://www.w3.org/2000/svg">
    <rect x="52" width="6" height="30" rx="3" fill="#32EEFF"/>
    <rect x="78" y="8" width="6" height="14" rx="3" fill="#32EEFF"/>
    <rect y="8" width="6" height="14" rx="3" fill="#32EEFF"/>
    <rect x="104" y="8" width="6" height="14" rx="3" fill="#2C4152"/>
    <rect x="26" y="8" width="6" height="14" rx="3" fill="#32EEFF"/>
    <rect x="130" y="8" width="6" height="14" rx="3" fill="#2C4152"/>
    <rect x="156" width="6" height="30" rx="3" fill="#2C4152"/>
    <rect x="182" y="8" width="6" height="14" rx="3" fill="#2C4152"/>
    <rect x="208" y="8" width="6" height="14" rx="3" fill="#2C4152"/>
    <rect x="234" y="8" width="6" height="14" rx="3" fill="#2C4152"/>
    <rect x="260" y="8" width="6" height="14" rx="3" fill="#2C4152"/>
    <rect x="286" y="8" width="6" height="14" rx="3" fill="#2C4152"/>
    <rect x="312" y="8" width="6" height="14" rx="3" fill="#2C4152"/>
    <rect x="338" width="6" height="30" rx="3" fill="#2C4152"/>
    <rect x="364" y="8" width="6" height="14" rx="3" fill="#2C4152"/>
    <rect x="390" y="8" width="6" height="14" rx="3" fill="#2C4152"/>
    <rect x="416" y="8" width="6" height="14" rx="3" fill="#2C4152"/>
    <rect x="442" width="6" height="30" rx="3" fill="#2C4152"/>
    <rect x="468" y="8" width="6" height="14" rx="3" fill="#2C4152"/>
    <rect x="494" y="8" width="6" height="14" rx="3" fill="#2C4152"/>
    <rect x="520" y="8" width="6" height="14" rx="3" fill="#2C4152"/>
    <rect x="546" y="8" width="6" height="14" rx="3" fill="#2C4152"/>
    <rect x="572" y="8" width="6" height="14" rx="3" fill="#2C4152"/>
    <rect x="611" y="8" width="14" height="14" rx="7" fill="#050A1D" stroke="#2C4152" stroke-width="6"/>
</svg>
